# File created by Blade
# Date/Time:  Wed Jan 21 19:08:52 2015
# Frame Rate: 120.000 fps
#------------------------------------------------------
:FULLY-SPECIFIED
:DEGREES
3942
root -3.983578 33.132826 -6.091004 35.510069 13.658846 -10.641478
RightUpLeg -103.851290 2.057868 11.160471
RightLeg 83.590572 -0.000000 -0.000000
RightFoot 11.209390 1.052236 19.289727
RightToeBase 24.006857 -0.000000 -0.000000
LeftUpLeg -41.771612 15.132014 -8.780407
LeftLeg 4.562986 -0.000000 -0.000000
LeftFoot -10.003197 11.441512 2.250430
LeftToeBase 6.494666 -0.000000 -0.000000
Spine -40.267685 -9.540586 19.660741
RightShoulder -21.681900 12.131088 -38.917938
RightArm -1.025932 -12.254418 55.667887
RightForeArm 7.449005 -0.000000 3.588235
RightHand 13.189428 -0.000000 -4.439808
RightHandThumb1 -24.326973 -0.000000 -32.862282
LeftShoulder -9.487644 5.613627 31.555512
LeftArm 27.211404 21.633234 -65.056035
LeftForeArm 26.151604 0.000000 44.477024
LeftHand -13.601279 -0.000000 -6.277054
LeftHandThumb1 -26.253704 0.000000 33.147579
Head 4.990223 -3.494827 15.582507
3943
root -4.002068 33.134956 -6.112508 35.731997 13.547184 -10.649363
RightUpLeg -103.096353 1.921565 11.215470
RightLeg 83.237328 -0.000000 -0.000000
RightFoot 11.233681 0.919737 19.500396
RightToeBase 23.944802 -0.000000 -0.000000
LeftUpLeg -41.998072 15.163822 -8.849869
LeftLeg 4.480305 -0.000000 -0.000000
LeftFoot -9.915490 11.521322 2.200143
LeftToeBase 6.365344 -0.000000 -0.000000
Spine -40.287090 -9.370377 19.521343
RightShoulder -21.730476 12.048444 -38.880373
RightArm -1.087111 -12.173999 55.789711
RightForeArm 7.510545 -0.000000 3.517134
RightHand 13.205015 -0.000000 -4.403875
RightHandThumb1 -24.326973 -0.000000 -32.862282
LeftShoulder -9.543142 5.739291 31.617222
LeftArm 26.868692 21.205416 -65.011825
LeftForeArm 26.050092 -0.000000 43.890327
LeftHand -13.653373 0.000000 -6.152419
LeftHandThumb1 -26.253704 0.000000 33.147579
Head 4.880461 -3.543948 15.632614
3944
root -4.019939 33.137224 -6.129132 35.937253 13.427276 -10.657191
RightUpLeg -102.316849 1.781641 11.292768
RightLeg 82.870470 -0.000000 -0.000000
RightFoot 11.231233 0.849569 19.531519
RightToeBase 24.145700 -0.000000 -0.000000
LeftUpLeg -42.191209 15.204124 -8.916134
LeftLeg 4.376690 -0.000000 -0.000000
LeftFoot -9.843697 11.585795 2.117769
LeftToeBase 6.309300 -0.000000 -0.000000
Spine -40.308488 -9.203433 19.370722
RightShoulder -21.751966 11.889876 -38.794313
RightArm -1.085123 -12.079598 55.872410
RightForeArm 7.528541 -0.000000 3.439983
RightHand 13.214793 -0.000000 -4.357186
RightHandThumb1 -24.326973 -0.000000 -32.862282
LeftShoulder -9.585406 5.869674 31.705646
LeftArm 26.471169 20.604522 -65.161973
LeftForeArm 26.104759 0.000000 43.261366
LeftHand -13.571996 -0.000000 -6.326044
LeftHandThumb1 -26.253704 0.000000 33.147579
Head 4.838055 -3.557278 15.712658
3945
root -4.033474 33.141338 -6.145033 36.111825 13.384519 -10.689459
RightUpLeg -101.503259 1.568362 11.455398
RightLeg 82.497614 -0.000000 -0.000000
RightFoot 11.181265 0.674065 19.287694
RightToeBase 24.066757 -0.000000 -0.000000
LeftUpLeg -42.380670 15.194542 -8.923787
LeftLeg 4.331234 -0.000000 -0.000000
LeftFoot -9.868073 11.484323 1.879960
LeftToeBase 6.466538 -0.000000 -0.000000
Spine -40.326056 -9.088338 19.312050
RightShoulder -21.741119 11.762956 -38.726102
RightArm -1.111132 -12.241843 55.951153
RightForeArm 7.854813 0.000000 3.348443
RightHand 13.311756 -0.000000 -4.323178
RightHandThumb1 -24.326973 -0.000000 -32.862282
LeftShoulder -9.632252 6.004529 31.747234
LeftArm 26.124607 20.171181 -65.163859
LeftForeArm 25.999769 -0.000000 42.664801
LeftHand -13.578972 -0.000000 -6.289250
LeftHandThumb1 -26.253704 0.000000 33.147579
Head 4.766337 -3.572747 15.748442
3946
root -4.053250 33.145360 -6.162629 36.325113 13.322966 -10.700833
RightUpLeg -100.722447 1.411558 11.525471
RightLeg 82.075581 -0.000000 -0.000000
RightFoot 11.201294 0.625901 19.549923
RightToeBase 24.190755 -0.000000 -0.000000
LeftUpLeg -42.610625 15.176632 -8.944740
LeftLeg 4.286913 -0.000000 -0.000000
LeftFoot -9.869861 11.531696 1.685198
LeftToeBase 6.451178 -0.000000 -0.000000
Spine -40.362449 -8.962663 19.197313
RightShoulder -21.782865 11.715274 -38.688169
RightArm -1.194126 -12.174631 56.059937
RightForeArm 7.848316 0.000000 3.263199
RightHand 13.254993 -0.000000 -4.329708
RightHandThumb1 -24.326973 -0.000000 -32.862282
LeftShoulder -9.676845 6.132320 31.810851
LeftArm 25.798228 19.737394 -65.163248
LeftForeArm 25.905030 -0.000000 42.067553
LeftHand -13.605703 -0.000000 -6.175706
LeftHandThumb1 -26.253704 0.000000 33.147579
Head 4.698645 -3.602011 15.820989
3947
root -4.071104 33.149959 -6.174623 36.535621 13.233199 -10.709565
RightUpLeg -99.924921 1.265103 11.582733
RightLeg 81.631855 -0.000000 -0.000000
RightFoot 11.168452 0.612280 19.537659
RightToeBase 24.200979 -0.000000 -0.000000
LeftUpLeg -42.817351 15.193413 -8.992434
LeftLeg 4.218669 -0.000000 -0.000000
LeftFoot -9.828600 11.571005 1.563977
LeftToeBase 6.431238 -0.000000 -0.000000
Spine -40.417816 -8.815001 19.066238
RightShoulder -21.813944 11.631517 -38.645093
RightArm -1.258118 -12.238116 56.155978
RightForeArm 7.939379 -0.000000 3.196458
RightHand 13.244775 -0.000000 -4.262237
RightHandThumb1 -24.326973 -0.000000 -32.862282
LeftShoulder -9.689265 6.241252 31.861909
LeftArm 25.403783 19.310256 -65.168040
LeftForeArm 25.832816 0.000000 41.565103
LeftHand -13.682564 -0.000000 -6.228588
LeftHandThumb1 -26.253704 0.000000 33.147579
Head 4.653815 -3.691573 15.882871
3948
root -4.088249 33.154125 -6.189459 36.750094 13.179773 -10.710922
RightUpLeg -99.140996 1.091455 11.662952
RightLeg 81.159864 -0.000000 -0.000000
RightFoot 11.182358 0.445413 19.467975
RightToeBase 23.890137 -0.000000 -0.000000
LeftUpLeg -43.032754 15.139956 -8.997690
LeftLeg 4.173535 -0.000000 -0.000000
LeftFoot -9.802088 11.649404 1.406926
LeftToeBase 6.457721 -0.000000 -0.000000
Spine -40.477000 -8.684937 18.945168
RightShoulder -21.831578 11.533169 -38.595125
RightArm -1.342932 -12.160063 56.237217
RightForeArm 7.950543 -0.000000 3.163907
RightHand 13.251634 -0.000000 -4.163811
RightHandThumb1 -24.326973 -0.000000 -32.862282
LeftShoulder -9.724864 6.325092 31.934847
LeftArm 25.111985 19.016439 -65.131445
LeftForeArm 25.644923 -0.000000 40.930208
LeftHand -13.604929 -0.000000 -6.271359
LeftHandThumb1 -26.253704 0.000000 33.147579
Head 4.607575 -3.757045 15.939397
3949
root -4.106381 33.159626 -6.201556 36.962043 13.132229 -10.737615
RightUpLeg -98.345915 0.943864 11.745252
RightLeg 80.670007 -0.000000 -0.000000
RightFoot 11.187444 0.428842 19.300025
RightToeBase 24.096491 -0.000000 -0.000000
LeftUpLeg -43.254180 15.113977 -8.989027
LeftLeg 4.132890 -0.000000 -0.000000
LeftFoot -9.808951 11.698279 1.211564
LeftToeBase 6.464554 -0.000000 -0.000000
Spine -40.539094 -8.556531 18.859283
RightShoulder -21.872211 11.449357 -38.551667
RightArm -1.414150 -12.161419 56.315690
RightForeArm 8.058246 -0.000000 3.151452
RightHand 13.261380 -0.000000 -4.036498
RightHandThumb1 -24.326973 -0.000000 -32.862282
LeftShoulder -9.799161 6.434144 31.985636
LeftArm 24.828654 18.632679 -65.170063
LeftForeArm 25.646706 -0.000000 40.318570
LeftHand -13.559090 -0.000000 -6.346117
LeftHandThumb1 -26.253704 0.000000 33.147579
Head 4.564775 -3.819922 15.980327
3950
root -4.125309 33.164806 -6.211913 37.190619 13.042593 -10.739585
RightUpLeg -97.554719 0.823903 11.766419
RightLeg 80.142603 -0.000000 -0.000000
RightFoot 11.183899 0.417826 19.257908
RightToeBase 23.954184 -0.000000 -0.000000
LeftUpLeg -43.490410 15.133980 -9.044889
LeftLeg 4.083707 -0.000000 -0.000000
LeftFoot -9.840684 11.763129 0.974670
LeftToeBase 6.405315 -0.000000 -0.000000
Spine -40.623989 -8.402960 18.716446
RightShoulder -21.913912 11.330598 -38.520973
RightArm -1.439404 -12.188537 56.419953
RightForeArm 8.120775 0.000000 3.088092
RightHand 13.235140 -0.000000 -3.972211
RightHandThumb1 -24.326973 -0.000000 -32.862282
LeftShoulder -9.838957 6.554710 32.039300
LeftArm 24.560235 18.234990 -65.213409
LeftForeArm 25.695609 -0.000000 39.692237
LeftHand -13.541700 -0.000000 -6.496150
LeftHandThumb1 -26.253704 0.000000 33.147579
Head 4.543717 -3.894043 16.030455
3951
root -4.142769 33.169687 -6.218433 37.408957 12.938468 -10.743043
RightUpLeg -96.752515 0.713238 11.777937
RightLeg 79.598931 -0.000000 -0.000000
RightFoot 11.227880 0.405735 19.074748
RightToeBase 23.944758 -0.000000 -0.000000
LeftUpLeg -43.674992 15.104466 -9.051263
LeftLeg 4.010471 -0.000000 -0.000000
LeftFoot -9.811070 11.845112 0.842467
LeftToeBase 6.460834 -0.000000 -0.000000
Spine -40.717997 -8.255714 18.579352
RightShoulder -21.894207 11.239961 -38.471737
RightArm -1.524901 -12.197181 56.505253
RightForeArm 8.253776 -0.000000 3.041061
RightHand 13.265015 -0.000000 -3.906206
RightHandThumb1 -24.326973 -0.000000 -32.862282
LeftShoulder -9.882140 6.668677 32.089785
LeftArm 24.270611 17.904957 -65.232563
LeftForeArm 25.678493 -0.000000 39.090838
LeftHand -13.558354 0.000000 -6.408263
LeftHandThumb1 -26.253704 0.000000 33.147579
Head 4.559950 -3.948635 16.068210
